<svg width="90" height="58" viewBox="0 0 90 58" fill="none" xmlns="http://www.w3.org/2000/svg">
<path d="M14.5712 50.21H13.8562C10.3253 50.21 6.79445 50.21 3.26356 50.21C1.22068 50.2049 0.00630517 48.9744 0 46.9168C0 44.2363 0 41.5558 0 38.8753C0 36.7679 1.21059 35.5425 3.28625 35.5336C4.39849 35.5336 5.51072 35.5336 6.60656 35.5336C6.19924 34.5941 5.80076 33.6789 5.34552 32.6322H2.74779C0.784363 32.6322 0 31.8396 0 29.8471C0 27.2942 0 24.7413 0 22.1884C0 20.5086 0.778058 19.6866 2.41992 19.5666C3.70996 19.4735 4.63052 18.8008 5.15006 17.6124C6.25641 15.0612 7.35603 12.5092 8.44893 9.95635C9.18411 8.2255 10.4666 7.35242 12.3291 7.3537C19.496 7.3537 26.6629 7.3537 33.8298 7.3537C35.6053 7.3537 36.8739 8.18721 37.5889 9.8453C38.2194 11.3068 38.9332 12.739 39.4489 14.2413C40.5107 17.3354 42.7957 18.9093 45.7541 19.7211C46.1812 19.8325 46.6145 19.9178 47.0517 19.9764C48.5586 20.1972 49.3997 21.1622 49.4023 22.7092C49.4082 25.1983 49.4082 27.6873 49.4023 30.1764C49.4023 31.6724 48.4855 32.5863 46.9924 32.5927C45.6053 32.6003 44.2182 32.5927 42.9407 32.5927L41.7037 35.5412H43.6318C44.4515 35.5412 45.2711 35.5412 46.0908 35.5412C49.3001 35.5336 51.6658 33.1543 51.6683 29.8956C51.6776 21.6208 51.6805 13.3457 51.6772 5.07015C51.6772 4.2226 51.6772 3.36101 51.8172 2.53132C52.0807 1.0213 53.2396 0.0320608 54.739 0.0205729C58.3119 -0.00750868 61.8848 -0.00750868 65.4578 0.0205729C66.7037 0.0282315 67.575 0.708572 68.1942 1.77823C70.5372 5.83474 72.8873 9.88785 75.2446 13.9376C76.0542 15.3289 76.8033 16.77 77.7377 18.0719C79.4855 20.5074 81.9306 21.8387 84.9004 21.8476C87.6116 21.8566 90.0404 23.8618 90 27.1819C89.9269 33.0739 89.9811 38.9672 89.9798 44.8605C89.9798 48.266 88.0593 50.2088 84.7062 50.2126C84.14 50.2126 83.4262 50.0352 83.0504 50.3134C82.6747 50.5917 82.6444 51.3346 82.4779 51.8758C81.4691 55.1767 78.1967 57.7653 74.7491 57.9797C70.0227 58.2733 66.1917 55.3477 65.1438 50.644C65.116 50.5164 65.0744 50.4015 65.0177 50.21H64.3493C53.9676 50.21 43.5851 50.2071 33.2018 50.2011C32.6885 50.2011 32.4565 50.2917 32.3329 50.8776C31.4502 55.063 27.7453 58.0257 23.4968 58.0014C21.4397 57.9972 19.4462 57.279 17.849 55.9668C16.2517 54.6546 15.1473 52.8277 14.7201 50.7908C14.6822 50.6057 14.628 50.427 14.5712 50.21ZM65.7074 24.2282C67.4729 24.2282 69.2383 24.2384 71.0038 24.2282C72.8335 24.2141 73.6797 22.7182 72.7541 21.1188C70.0479 16.4445 67.3342 11.7748 64.6129 7.1099C63.5612 5.31012 61.691 4.52894 59.8323 5.05994C57.995 5.58583 56.8323 7.21201 56.8298 9.28367C56.8298 12.9828 56.8298 16.6815 56.8298 20.3797C56.8298 22.6965 58.314 24.209 60.6129 24.2282C62.3052 24.2371 64.0063 24.2269 65.7074 24.2282ZM23.9395 9.33856V19.7977C28.29 19.7977 32.5763 19.7977 36.8638 19.7977C38.6192 19.7977 39.4489 18.4919 38.7213 16.8721C37.7654 14.743 36.7982 12.619 35.8436 10.4899C35.4943 9.71 34.9369 9.32324 34.0681 9.3309C31.4842 9.35004 28.8979 9.33728 26.314 9.33856H23.9395ZM20.7554 19.7658V9.36536C20.5372 9.35387 20.3707 9.33856 20.2055 9.33856C17.5397 9.33856 14.8726 9.35132 12.2068 9.3309C11.3354 9.3309 10.7881 9.72149 10.4414 10.4963C9.48298 12.6228 8.51576 14.743 7.55738 16.8695C6.82724 18.4881 7.65448 19.7964 9.40984 19.7977C12.9802 19.7977 16.5494 19.7977 20.1173 19.7977C20.3216 19.7964 20.5259 19.7773 20.7554 19.7658ZM29.0101 48.9489C29.0237 47.854 28.7163 46.7795 28.1268 45.8613C27.5373 44.9431 26.6922 44.2225 25.6982 43.7903C24.7041 43.3582 23.6059 43.234 22.5422 43.4335C21.4784 43.633 20.497 44.1471 19.7219 44.911C18.9468 45.6749 18.4128 46.6543 18.1874 47.7253C17.9619 48.7963 18.0552 49.9109 18.4555 50.9282C18.8557 51.9455 19.5449 52.82 20.4359 53.441C21.3269 54.062 22.3798 54.4017 23.4615 54.4172C24.181 54.4285 24.8956 54.2958 25.5643 54.0269C26.2329 53.7579 26.8425 53.3579 27.3581 52.8498C27.8736 52.3417 28.285 51.7356 28.5685 51.0661C28.852 50.3967 29.002 49.6772 29.0101 48.9489ZM79.4653 48.8123C79.4023 45.708 76.9432 43.279 73.9168 43.3313C72.8341 43.3458 71.78 43.6847 70.8876 44.3053C69.9953 44.9259 69.3046 45.8004 68.903 46.8181C68.5014 47.8359 68.4068 48.9513 68.6313 50.0235C68.8557 51.0956 69.389 52.0763 70.1639 52.8418C70.9388 53.6072 71.9204 54.123 72.9848 54.324C74.0491 54.5249 75.1485 54.402 76.1439 53.9708C77.1392 53.5396 77.986 52.8194 78.5772 51.9013C79.1684 50.9831 79.4774 49.9082 79.4653 48.8123ZM32.6936 32.5786H31.889C28.9155 32.5854 25.942 32.5918 22.9685 32.5978C20.6229 32.5978 18.2774 32.5978 15.9332 32.6169C15.7478 32.6169 15.4552 32.7292 15.3972 32.8722C15.034 33.7351 14.7226 34.6209 14.3997 35.4825H33.9218L32.6936 32.5786ZM37.9105 29.1029C37.3178 29.0867 36.7337 29.2488 36.232 29.5685C35.7302 29.8883 35.3334 30.3514 35.0916 30.8994C34.8499 31.4473 34.774 32.0555 34.8736 32.6471C34.9732 33.2387 35.2439 33.7872 35.6513 34.2231C36.0588 34.6591 36.5847 34.963 37.1628 35.0965C37.7408 35.23 38.345 35.187 38.8989 34.973C39.4528 34.7591 39.9316 34.3837 40.2749 33.8944C40.6181 33.405 40.8103 32.8237 40.8272 32.2238C40.8493 31.4184 40.5544 30.6372 40.0074 30.0519C39.4604 29.4666 38.7061 29.1253 37.9105 29.1029ZM10.4767 35.1749C11.069 35.1704 11.6466 34.9883 12.1368 34.6517C12.6269 34.3151 13.0076 33.8391 13.2307 33.2837C13.4538 32.7283 13.5093 32.1185 13.3903 31.5312C13.2713 30.9439 12.983 30.4054 12.5619 29.9838C12.1408 29.5622 11.6057 29.2763 11.0242 29.1622C10.4428 29.0482 9.84092 29.111 9.2947 29.3429C8.74849 29.5748 8.28238 29.9652 7.95522 30.465C7.62806 30.9648 7.45452 31.5515 7.45649 32.151C7.45562 32.5512 7.53339 32.9475 7.68527 33.3169C7.83715 33.6864 8.0601 34.0216 8.34116 34.303C8.62222 34.5844 8.95576 34.8064 9.32239 34.9561C9.68901 35.1058 10.0814 35.1801 10.4767 35.1749Z" fill="black"/>
</svg>
