<svg width="72" height="56" viewBox="0 0 72 56" fill="none" xmlns="http://www.w3.org/2000/svg">
<path d="M65.9875 0H6.0125C2.6875 0 0 2.6875 0 6V50C0 53.3125 2.6875 56 6.0125 56H65.9875C69.3125 56 72 53.3125 72 50V6C72 2.6875 69.3125 0 65.9875 0ZM6.7625 6H65.2375C65.65 6 65.9875 6.3375 65.9875 6.75V12H6.0125V6.75C6.0125 6.3375 6.35 6 6.7625 6ZM65.2375 50H6.7625C6.35 50 6.0125 49.6625 6.0125 49.25V28H65.9875V49.25C65.9875 49.6625 65.65 50 65.2375 50ZM24 37.5V42.5C24 43.325 23.325 44 22.5 44H13.5C12.675 44 12 43.325 12 42.5V37.5C12 36.675 12.675 36 13.5 36H22.5C23.325 36 24 36.675 24 37.5ZM48 37.5V42.5C48 43.325 47.325 44 46.5 44H29.5C28.675 44 28 43.325 28 42.5V37.5C28 36.675 28.675 36 29.5 36H46.5C47.325 36 48 36.675 48 37.5Z" fill="black"/>
</svg>
