<svg width="69" height="69" viewBox="0 0 69 69" fill="none" xmlns="http://www.w3.org/2000/svg">
<path d="M67.53 53.3268L51.7489 37.5457C48.6358 34.4326 43.9864 33.8262 40.2399 35.6725L25.8739 21.3064V12.9375L8.62393 0L-0.00107432 8.625L12.9364 25.875H21.3054L35.6714 40.241C33.8386 43.9875 34.4315 48.6369 37.5446 51.75L53.3257 67.5311C55.2933 69.4986 58.4737 69.4986 60.4278 67.5311L67.53 60.4289C69.4841 58.4613 69.4841 55.2809 67.53 53.3268ZM44.7007 30.3223C48.5146 30.3223 52.0993 31.8047 54.7946 34.5L57.4091 37.1145C59.5384 36.1846 61.5599 34.8908 63.3118 33.1389C68.3116 28.1391 70.0097 21.1043 68.4194 14.7164C68.123 13.5035 66.6001 13.0857 65.7106 13.9752L55.6841 24.0018L46.5335 22.4789L45.0106 13.3283L55.0372 3.30176C55.9267 2.4123 55.4954 0.889453 54.2691 0.579492C47.8812 -0.997266 40.8464 0.700781 35.8601 5.68711C32.0192 9.52793 30.2134 14.5951 30.3077 19.6488L41.372 30.7131C42.4636 30.457 43.5956 30.3223 44.7007 30.3223ZM30.6985 41.373L23.0573 33.7318L2.51904 54.2836C-0.850098 57.6527 -0.850098 63.1107 2.51904 66.4799C5.88818 69.849 11.3462 69.849 14.7153 66.4799L31.3724 49.8229C30.3481 47.141 30.0382 44.2166 30.6985 41.373ZM8.62393 63.6094C6.84502 63.6094 5.38955 62.1539 5.38955 60.375C5.38955 58.5826 6.83154 57.1406 8.62393 57.1406C10.4163 57.1406 11.8583 58.5826 11.8583 60.375C11.8583 62.1539 10.4163 63.6094 8.62393 63.6094Z" fill="black"/>
</svg>
